<svg width="114" height="48" viewBox="0 0 114 48" fill="none" xmlns="http://www.w3.org/2000/svg">
<g clip-path="url(#clip0_1078_38639)">
<path fill-rule="evenodd" clip-rule="evenodd" d="M5.71521 31.4572C8.9538 31.4572 10.9304 33.4655 10.9304 36.7032V39.381C10.9304 42.7089 8.96023 44.6271 5.71521 44.6271C2.47019 44.6271 0.5 42.7153 0.5 39.3874V36.7097C0.5 33.4655 2.47019 31.4572 5.71521 31.4572ZM2.8887 39.4904C2.8887 41.3185 3.79653 42.4965 5.71521 42.4965C7.6339 42.4965 8.54173 41.2477 8.54173 39.4904V36.5938C8.54173 34.8043 7.49225 33.5878 5.71521 33.5878C3.93818 33.5878 2.8887 34.8752 2.8887 36.5938V39.4904ZM12.4821 35.403H14.7292V36.6711H14.9803C15.4503 35.9115 16.2487 35.1519 17.839 35.1519C20.086 35.1519 21.9661 37.1409 21.9661 39.8959C21.9661 42.6509 20.086 44.6399 17.839 44.6399C16.2487 44.6399 15.4503 43.8804 14.9803 43.1208H14.7614V48.0064H12.4821V35.4094V35.403ZM19.6868 39.8895C19.6868 38.1515 18.5987 37.1731 17.2273 37.1731C15.8559 37.1731 14.7678 38.1837 14.7678 39.8895C14.7678 41.5953 15.8173 42.6059 17.2273 42.6059C18.6374 42.6059 19.6868 41.6275 19.6868 39.8895ZM31.7849 39.6771C31.7849 36.98 30.0336 35.1519 27.426 35.1519C24.7797 35.1519 22.919 37.038 22.919 39.8251C22.919 42.6123 24.857 44.6399 27.5354 44.6399C29.9434 44.6399 30.9929 43.3719 31.611 42.4321L29.7438 41.3442C29.4348 41.9751 28.8038 42.6831 27.4968 42.6831C26.1898 42.6831 25.3399 41.7562 25.2497 40.5268H31.7849V39.6771ZM27.4131 37.1088C28.5849 37.1088 29.3447 37.8297 29.4734 39.0076H25.2755C25.4236 37.8683 26.1254 37.1088 27.4131 37.1088ZM35.442 35.403V36.8513H35.6931C36.0536 36.0209 36.8842 35.2549 38.5325 35.2549C40.522 35.2549 42.0286 36.6839 42.0286 39.0205V44.376H39.7493V39.2329C39.7493 37.9842 39.0282 37.2439 37.7212 37.2439C36.2532 37.2439 35.4742 38.1515 35.4742 39.7415V44.376H33.1949V35.3965H35.442V35.403ZM47.0313 42.0652L45.5118 31.7146H43.1231L45.1126 44.3825H49.008L50.946 34.0255H51.1649L53.0964 44.3825H56.9918L58.9813 31.7146H56.5926L55.0731 42.0652H54.8542L52.9162 31.7146H49.1882L47.2502 42.0652H47.0313ZM63.8778 35.1519C66.4836 35.1535 68.2399 36.9811 68.2399 39.6771V40.5268H61.7048C61.7949 41.7562 62.6448 42.6831 63.9518 42.6831C65.2589 42.6831 65.8898 41.9751 66.1989 41.3442L68.0661 42.4321C67.448 43.3719 66.3985 44.6399 63.9905 44.6399C61.312 44.6399 59.374 42.6123 59.374 39.8251C59.374 37.0391 61.2397 35.1535 63.8778 35.1519ZM63.8778 35.1519L63.8746 35.1519H63.881L63.8778 35.1519ZM65.9285 39.0076C65.7997 37.8297 65.0399 37.1088 63.8617 37.1088C62.574 37.1088 61.8722 37.8683 61.7241 39.0076H65.922H65.9285ZM77.7947 38.718C77.7947 36.5488 76.1142 35.1519 73.7255 35.1519C71.3368 35.1519 70.0362 36.5809 69.328 37.6108L71.1758 38.7309C71.6459 37.7138 72.3734 36.9929 73.6354 36.9929C74.8973 36.9929 75.5154 37.7203 75.5154 38.5506V38.8403L72.0772 39.2201C70.3581 39.4003 69.1091 40.398 69.1091 41.827C69.1091 43.5457 70.4483 44.6335 72.4764 44.6335C74.3822 44.6335 75.0132 43.713 75.3029 43.1144H75.5541V44.3825H77.7947V38.718ZM75.5154 40.5847C75.5154 41.8141 74.6269 42.7539 73.0366 42.7539H73.0301C72.0193 42.7539 71.4913 42.3227 71.4913 41.7047C71.4913 41.1833 71.9098 40.8035 72.7597 40.6941L75.5154 40.3658V40.5847ZM80.8787 35.403V32.6158H83.158V35.403H85.6239V37.3212H83.158V41.9171C83.158 42.2776 83.3383 42.4643 83.6666 42.4643H85.1153V44.3825H82.6558C81.6449 44.3825 80.8852 43.6551 80.8852 42.6445V37.3212H78.6059V35.403H80.8787ZM89.4226 31.7211V31.7146L89.4291 31.7211H89.4226ZM89.4226 31.7211V36.8577H89.6416C90.0021 36.0274 90.8391 35.2678 92.4874 35.2678C94.4769 35.2678 95.9835 36.6968 95.9835 39.0334V44.3889H93.7043V39.2458C93.7043 37.9971 92.9832 37.2568 91.6761 37.2568C90.2081 37.2568 89.4291 38.1644 89.4291 39.7543V44.3889H87.1498V31.7211H89.4226ZM101.862 35.1519C104.47 35.1519 106.221 36.98 106.221 39.6771V40.5268H99.6858C99.7759 41.7562 100.626 42.6831 101.933 42.6831C103.24 42.6831 103.871 41.9751 104.18 41.3442L106.047 42.4321C105.429 43.3719 104.379 44.6399 101.971 44.6399C99.293 44.6399 97.355 42.6123 97.355 39.8251C97.355 37.038 99.2157 35.1519 101.862 35.1519ZM103.909 39.0076C103.781 37.8297 103.021 37.1088 101.849 37.1088C100.561 37.1088 99.8596 37.8683 99.7115 39.0076H103.909ZM110.135 36.7097H109.884L109.891 36.7032V35.403H107.644V44.3825H109.923V39.2458C109.923 37.9777 110.754 37.3598 111.912 37.3598H113.252V35.3708H112.382C111.243 35.3708 110.477 35.7119 110.135 36.7097Z" fill="#48484A"/>
<path fill-rule="evenodd" clip-rule="evenodd" d="M43.2203 18.2164V18.3066C43.2203 18.9631 42.6923 19.4974 42.0356 19.4974H29.6092C28.9525 19.4974 28.4245 20.0252 28.4245 20.6818V20.7719C28.4245 21.4285 28.9525 21.9563 29.6092 21.9563H30.0986C30.7553 21.9563 31.2897 22.4906 31.2897 23.1471V23.2372C31.2897 23.8938 30.7553 24.4216 30.0986 24.4216H28.6241C27.9674 24.4216 27.433 24.9559 27.433 25.6125V25.7026C27.433 26.3591 27.9674 26.887 28.6241 26.887H36.7109C37.3677 26.887 37.8956 27.4212 37.8956 28.0778V28.1679C37.8956 28.8245 37.3677 29.3523 36.7109 29.3523H15.2706C14.6139 29.3523 14.0795 28.8245 14.0795 28.1679V28.0778C14.0795 27.4212 14.6139 26.887 15.2706 26.887H20.4086C21.0653 26.887 21.5997 26.3591 21.5997 25.7026V25.6125C21.5997 24.9559 21.0653 24.4216 20.4086 24.4216H12.7724C12.1093 24.4216 11.5813 23.8938 11.5813 23.2372V23.1471C11.5813 22.9862 11.6135 22.8317 11.6715 22.6965C11.8453 22.2588 12.2767 21.9563 12.7724 21.9563H13.1716C13.8284 21.9563 14.3628 21.4285 14.3628 20.7719V20.6818C14.3628 20.0252 13.8284 19.4974 13.1716 19.4974H8.56808C7.91135 19.4974 7.37695 18.9631 7.37695 18.3066V18.2164C7.37695 17.5599 7.91135 17.0321 8.56808 17.0321H9.46948C9.34715 16.2661 9.28276 15.4743 9.28276 14.6761C9.2892 6.57208 15.8694 0 23.9691 0C32.0688 0 38.6554 6.57208 38.6554 14.6826C38.6554 15.4808 38.5846 16.2725 38.4687 17.0385H42.042C42.6988 17.0385 43.2267 17.5663 43.2267 18.2229L43.2203 18.2164ZM45.0746 23.141V23.2311C45.0746 23.8878 44.5402 24.4158 43.8835 24.4158H41.2437C40.5869 24.4158 40.059 23.8878 40.059 23.2311V23.141C40.059 22.4842 40.5869 21.9498 41.2437 21.9498H43.8835C44.5402 21.9498 45.0746 22.4842 45.0746 23.141ZM38.0566 23.2311V23.141C38.0566 22.4842 37.5222 21.9498 36.8655 21.9498H34.2257C33.5689 21.9498 33.041 22.4842 33.041 23.141V23.2311C33.041 23.8878 33.5689 24.4158 34.2257 24.4158H36.8655C37.5222 24.4158 38.0566 23.8878 38.0566 23.2311Z" fill="#EB6E4B"/>
</g>
<defs>
<clipPath id="clip0_1078_38639">
<rect width="112.752" height="48" fill="white" transform="translate(0.5)"/>
</clipPath>
</defs>
</svg>
